<?xml version="1.0" encoding="UTF-8" standalone="no" ?>
<!DOCTYPE svg PUBLIC "-//W3C//DTD SVG 1.1//EN" "http://www.w3.org/Graphics/SVG/1.1/DTD/svg11.dtd">
<svg xmlns="http://www.w3.org/2000/svg" xmlns:xlink="http://www.w3.org/1999/xlink" version="1.1" width="267.344" height="193.36" xml:space="preserve">
<desc>Created with Fabric.js 1.6.0-rc.1</desc>
<defs></defs>
<g style="stroke: none; stroke-width: 1; stroke-dasharray: none; stroke-linecap: butt; stroke-linejoin: miter; stroke-miterlimit: 10; fill: none; fill-rule: nonzero; opacity: 1;" transform="translate(67.99999999999999 55.110000000000014) scale(0.25 0.25)" >
  <path d="M 393.897 495.063 l -61.438 -25.368 l 75.676 -183.281 c 1.875 -4.54 7.075 -6.701 11.616 -4.827 l 44.995 18.579 c 4.54 1.875 6.701 7.075 4.827 11.616 L 393.897 495.063 z" style="stroke: none; stroke-width: 1; stroke-dasharray: none; stroke-linecap: butt; stroke-linejoin: miter; stroke-miterlimit: 10; fill: #8D6A59; fill-rule: nonzero; opacity: 1;" transform=" matrix(1 0 0 1 0 0) " stroke-linecap="round" />
  <polygon points="453.16,351.53 410.36,368.1 391.72,326.16 383.82,345.31 396.36,373.53 367.56,384.68 359.65,403.83 402.45,387.25 421.09,429.2 429,410.05 416.46,381.83 445.26,370.68 " style="stroke: none; stroke-width: 1; stroke-dasharray: none; stroke-linecap: butt; stroke-linejoin: miter; stroke-miterlimit: 10; fill: rgb(0,0,0); fill-rule: nonzero; opacity: 1;" transform="  matrix(1 0 0 1 0 0) "/>
  <path d="M 457.155 341.858 l -61.438 -25.368 l 12.418 -30.076 c 1.875 -4.54 7.075 -6.701 11.616 -4.827 l 44.995 18.579 c 4.54 1.875 6.701 7.075 4.827 11.616 L 457.155 341.858 z" style="stroke: none; stroke-width: 1; stroke-dasharray: none; stroke-linecap: butt; stroke-linejoin: miter; stroke-miterlimit: 10; fill: #FFFFFF; fill-rule: nonzero; opacity: 1;" transform=" matrix(1 0 0 1 0 0) " stroke-linecap="round" />
  <path d="M 66.981 361.842 c 28.781 -36.564 41.552 -75.198 37.973 -114.93 l 50.238 -4.526 c 3.213 35.671 -3.4 70.951 -19.658 104.86 c -10.306 21.496 -22.068 37.353 -29.599 46.716 c -2.503 3.112 -7.064 3.567 -10.13 1.008 L 67.99 371.742 C 65.022 369.264 64.59 364.88 66.981 361.842 z" style="stroke: none; stroke-width: 1; stroke-dasharray: none; stroke-linecap: butt; stroke-linejoin: miter; stroke-miterlimit: 10; fill: #E36566; fill-rule: nonzero; opacity: 1;" transform=" matrix(1 0 0 1 0 0) " stroke-linecap="round" />
  <path d="M 66.981 361.842 c 28.781 -36.564 41.552 -75.198 37.973 -114.93 l 50.238 -4.526 c 3.213 35.671 -3.4 70.951 -19.658 104.86 c -10.306 21.496 -22.068 37.353 -29.599 46.716 c -2.503 3.112 -7.064 3.567 -10.13 1.008 L 67.99 371.742 C 65.022 369.264 64.59 364.88 66.981 361.842 z" style="stroke: none; stroke-width: 1; stroke-dasharray: none; stroke-linecap: butt; stroke-linejoin: miter; stroke-miterlimit: 10; fill: rgb(0,0,0); fill-rule: nonzero; opacity: 1;" transform=" matrix(1 0 0 1 0 0) " stroke-linecap="round" />
  <path d="M 35.305 300.087 c 42.316 -19.354 71.342 -47.871 86.329 -84.842 l 46.747 18.949 c -13.455 33.192 -35.471 61.542 -65.437 84.263 c -18.996 14.404 -36.707 23.127 -47.687 28.009 c -3.649 1.622 -7.914 -0.058 -9.469 -3.736 l -14.114 -33.377 C 30.168 305.792 31.788 301.696 35.305 300.087 z" style="stroke: none; stroke-width: 1; stroke-dasharray: none; stroke-linecap: butt; stroke-linejoin: miter; stroke-miterlimit: 10; fill: #E36566; fill-rule: nonzero; opacity: 1;" transform=" matrix(1 0 0 1 0 0) " stroke-linecap="round" />
  <path d="M 141.388 393.404 C 67.609 405.2 57.17 471.179 56.118 499.301 C 55.858 506.243 61.431 512 68.378 512 h 73.01 V 393.404 z" style="stroke: none; stroke-width: 1; stroke-dasharray: none; stroke-linecap: butt; stroke-linejoin: miter; stroke-miterlimit: 10; fill: #394049; fill-rule: nonzero; opacity: 1;" transform=" matrix(1 0 0 1 0 0) " stroke-linecap="round" />
  <path d="M 130.301 395.71 C 99.824 425.542 80.279 466.49 78.229 512 h 63.16 V 393.404 C 137.515 394.023 133.833 394.806 130.301 395.71 z" style="stroke: none; stroke-width: 1; stroke-dasharray: none; stroke-linecap: butt; stroke-linejoin: miter; stroke-miterlimit: 10; fill: rgb(0,0,0); fill-rule: nonzero; opacity: 1;" transform=" matrix(1 0 0 1 0 0) " stroke-linecap="round" />
  <path d="M 395.609 393.404 c 73.778 11.796 84.218 77.775 85.27 105.897 c 0.26 6.942 -5.313 12.699 -12.26 12.699 h -73.01 L 395.609 393.404 L 395.609 393.404 z" style="stroke: none; stroke-width: 1; stroke-dasharray: none; stroke-linecap: butt; stroke-linejoin: miter; stroke-miterlimit: 10; fill: #394049; fill-rule: nonzero; opacity: 1;" transform=" matrix(1 0 0 1 0 0) " stroke-linecap="round" />
  <path d="M 406.696 395.71 c 30.477 29.831 50.023 70.78 52.073 116.29 h -63.16 V 393.404 C 399.483 394.023 403.164 394.806 406.696 395.71 z" style="stroke: none; stroke-width: 1; stroke-dasharray: none; stroke-linecap: butt; stroke-linejoin: miter; stroke-miterlimit: 10; fill: rgb(0,0,0); fill-rule: nonzero; opacity: 1;" transform=" matrix(1 0 0 1 0 0) " stroke-linecap="round" />
  <path d="M 442.356 512 c 0 -96.018 -77.838 -173.857 -173.857 -173.857 S 94.642 415.982 94.642 512 H 442.356 z" style="stroke: none; stroke-width: 1; stroke-dasharray: none; stroke-linecap: butt; stroke-linejoin: miter; stroke-miterlimit: 10; fill: #394049; fill-rule: nonzero; opacity: 1;" transform=" matrix(1 0 0 1 0 0) " stroke-linecap="round" />
  <path d="M 268.499 338.143 c -50.377 0 -95.74 21.435 -127.493 55.671 c 34.88 28.095 79.218 44.923 127.493 44.923 s 92.612 -16.828 127.493 -44.923 C 364.239 359.578 318.876 338.143 268.499 338.143 z" style="stroke: none; stroke-width: 1; stroke-dasharray: none; stroke-linecap: butt; stroke-linejoin: miter; stroke-miterlimit: 10; fill: rgb(0,0,0); fill-rule: nonzero; opacity: 1;" transform=" matrix(1 0 0 1 0 0) " stroke-linecap="round" />
  <circle cx="269.02" cy="203.41" r="203.41" style="stroke: none; stroke-width: 1; stroke-dasharray: none; stroke-linecap: butt; stroke-linejoin: miter; stroke-miterlimit: 10; fill: #394049; fill-rule: nonzero; opacity: 1;" transform="  matrix(1 0 0 1 0 0) "/>
  <path d="M 394.167 214.644 H 142.831 c -17.375 0 -31.461 -14.085 -31.461 -31.461 l 0 0 c 0 -17.375 14.085 -31.461 31.461 -31.461 h 251.337 c 17.375 0 31.461 14.086 31.461 31.461 l 0 0 C 425.628 200.559 411.542 214.644 394.167 214.644 z" style="stroke: none; stroke-width: 1; stroke-dasharray: none; stroke-linecap: butt; stroke-linejoin: miter; stroke-miterlimit: 10; fill: #e8cebe; fill-rule: nonzero; opacity: 1;" transform=" matrix(1 0 0 1 0 0) " stroke-linecap="round" />
  <path d="M 156.098 201.263 c -4.142 0 -7.5 -3.357 -7.5 -7.5 v -24.702 c 0 -4.143 3.358 -7.5 7.5 -7.5 s 7.5 3.357 7.5 7.5 v 24.702 C 163.598 197.905 160.24 201.263 156.098 201.263 z" style="stroke: none; stroke-width: 1; stroke-dasharray: none; stroke-linecap: butt; stroke-linejoin: miter; stroke-miterlimit: 10; fill: #394049; fill-rule: nonzero; opacity: 1;" transform=" matrix(1 0 0 1 0 0) " stroke-linecap="round" />
  <path d="M 380.9 201.263 c -4.142 0 -7.5 -3.357 -7.5 -7.5 v -24.702 c 0 -4.143 3.358 -7.5 7.5 -7.5 s 7.5 3.357 7.5 7.5 v 24.702 C 388.4 197.905 385.042 201.263 380.9 201.263 z" style="stroke: none; stroke-width: 1; stroke-dasharray: none; stroke-linecap: butt; stroke-linejoin: miter; stroke-miterlimit: 10; fill: #394049; fill-rule: nonzero; opacity: 1;" transform=" matrix(1 0 0 1 0 0) " stroke-linecap="round" />
  <path d="M 172.704 263.484 h -33.205 c -4.142 0 -7.5 -3.357 -7.5 -7.5 s 3.358 -7.5 7.5 -7.5 h 33.205 c 4.142 0 7.5 3.357 7.5 7.5 S 176.846 263.484 172.704 263.484 z" style="stroke: none; stroke-width: 1; stroke-dasharray: none; stroke-linecap: butt; stroke-linejoin: miter; stroke-miterlimit: 10; fill: #EC8087; fill-rule: nonzero; opacity: 1;" transform=" matrix(1 0 0 1 0 0) " stroke-linecap="round" />
  <path d="M 397.499 263.484 h -33.205 c -4.142 0 -7.5 -3.357 -7.5 -7.5 s 3.358 -7.5 7.5 -7.5 h 33.205 c 4.142 0 7.5 3.357 7.5 7.5 S 401.641 263.484 397.499 263.484 z" style="stroke: none; stroke-width: 1; stroke-dasharray: none; stroke-linecap: butt; stroke-linejoin: miter; stroke-miterlimit: 10; fill: #EC8087; fill-rule: nonzero; opacity: 1;" transform=" matrix(1 0 0 1 0 0) " stroke-linecap="round" />
  <path d="M 268.499 263.484 c -10.47 0 -20.461 -5.043 -26.727 -13.489 c -2.468 -3.327 -1.772 -8.024 1.555 -10.492 c 3.326 -2.467 8.025 -1.771 10.492 1.555 c 3.501 4.72 8.852 7.427 14.68 7.427 s 11.179 -2.707 14.68 -7.427 c 2.468 -3.326 7.166 -4.021 10.492 -1.555 c 3.327 2.468 4.023 7.165 1.555 10.492 C 288.96 258.441 278.969 263.484 268.499 263.484 z" style="stroke: none; stroke-width: 1; stroke-dasharray: none; stroke-linecap: butt; stroke-linejoin: miter; stroke-miterlimit: 10; fill: #FFFFFF; fill-rule: nonzero; opacity: 1;" transform=" matrix(1 0 0 1 0 0) " stroke-linecap="round" />
  <path d="M 445.156 101.615 H 92.882 c -8.99 15.521 -15.984 32.341 -20.638 50.108 h 393.55 C 461.139 133.955 454.145 117.136 445.156 101.615 z" style="stroke: none; stroke-width: 1; stroke-dasharray: none; stroke-linecap: butt; stroke-linejoin: miter; stroke-miterlimit: 10; fill: #E36566; fill-rule: nonzero; opacity: 1;" transform=" matrix(1 0 0 1 0 0) " stroke-linecap="round" />
</g>
<g style="stroke: none; stroke-width: 1; stroke-dasharray: none; stroke-linecap: butt; stroke-linejoin: miter; stroke-miterlimit: 10; fill: none; fill-rule: nonzero; opacity: 1;" transform="translate(111.00000000000001 21.110000000000014) scale(0.17 0.17)" >
  <path d="M 113.483 152.314 c -11.537 7.918 -24.232 17.734 -27.714 32.029 c -1.502 21.232 7.67 40.086 26.922 49.253 c 21.431 8.645 41.217 12.959 64.372 16.808 c 9.184 3.16 15.173 -1.165 23.104 -4.3 c 33.202 -22.645 5.892 -61.856 -12.825 -85.073 c -12.094 -8.617 -35.347 -10.706 -50.673 -13.513 c -8.078 -0.068 -15.295 3.164 -23.186 4.796 z" style="stroke: #000; stroke-width: 1; stroke-dasharray: none; stroke-linecap: butt; stroke-linejoin: miter; stroke-miterlimit: 10; fill: rgb(0,0,0); fill-rule: evenodd; opacity: 1;" transform="" stroke-linecap="round" />
  <path d="M 201.628 182.979 c 9.65 -3.875 21.486 7.605 24.07 16.841 c 0.872 6.265 -6.616 25.286 2.514 24.21 c 9.47 -7.508 19.401 -12.196 29.637 -4.426 c 3.191 4.618 13.45 15.426 4.135 17.346 c -3.332 0.718 -8.46 0.479 -11.883 -0.047 c -5.634 0.78 -11.246 2.42 -16.869 3.631 c -6.073 3.957 -12.512 7.371 -19.13 9.329 c -3.966 0.562 -22.74 -8.904 -24.785 -13.958" style="stroke: #000; stroke-width: 1; stroke-dasharray: none; stroke-linecap: butt; stroke-linejoin: miter; stroke-miterlimit: 10; fill: rgb(0,0,0); fill-rule: evenodd; opacity: 1;" transform="" stroke-linecap="round" />
  <path d="M 214.101 249.863 c -6.618 1.957 2.053 -19.25 14.11 -25.834 c 9.471 -7.507 19.402 -12.195 29.638 -4.425 c 3.191 4.618 13.45 15.426 4.135 17.346 c -3.332 0.718 -8.46 0.479 -11.883 -0.047 c -5.634 0.78 -11.246 2.42 -16.869 3.631 c -6.073 3.957 -12.512 7.371 -19.13 9.329 z" style="stroke: #000; stroke-width: 1; stroke-dasharray: none; stroke-linecap: butt; stroke-linejoin: miter; stroke-miterlimit: 10; fill: #fff; fill-rule: evenodd; opacity: 1;" transform="" stroke-linecap="round" />
  <path d="M 86.746 196.782 c -30.153 -14.183 -79.931 -5.505 -86.22 23.17 c -0.542 9.446 7.661 15.89 16.65 20.274 c 15.052 6.458 31.595 2.037 46.668 6.349 c 9.7 2.775 26.956 0.977 36.993 0.977 h 15.366 c 10.705 0 21.56 -2.93 32.44 -2.93 c 6.64 0 13.28 4.395 19.92 4.395 c 11.772 -0.923 17.435 -8.372 9.106 -16.605 c -5.513 -4.731 -20.114 -6.578 -27.318 -7.814 c -6.825 -1.172 -14.002 -0.977 -21.058 -0.977 c -5.593 0 -60.727 1.465 -66.587 1.465 c -26.067 -3.399 -16.45 -1.752 -31.639 -4.316 c -1.909 -2.184 11.204 -7.906 12.23 -8.786 c 23.823 -7.62 39.855 2.142 44.288 1.073 c 6.421 -2.838 0.598 -9.904 -0.839 -16.275 z" style="stroke: #fff; stroke-width: 1; stroke-dasharray: none; stroke-linecap: butt; stroke-linejoin: miter; stroke-miterlimit: 10; fill: rgb(0,0,0); fill-rule: evenodd; opacity: 1;" transform="" stroke-linecap="round" />
  <path d="M 106.011 179.767 c -12.589 -3.875 -28.03 7.605 -31.4 16.841 c -1.137 6.265 8.63 25.286 -3.28 24.21 c -12.354 -7.508 -25.309 -12.196 -38.662 -4.426 c -4.163 4.618 -17.546 15.426 -5.394 17.346 c 4.346 0.718 11.037 0.479 15.501 -0.047 c 7.35 0.78 14.67 2.42 22.007 3.631 c 7.922 3.957 16.322 7.371 24.956 9.329 c 5.173 0.562 29.665 -8.904 32.332 -13.958" style="stroke: #000; stroke-width: 1; stroke-dasharray: none; stroke-linecap: butt; stroke-linejoin: miter; stroke-miterlimit: 10; fill: rgb(0,0,0); fill-rule: evenodd; opacity: 1;" transform="" stroke-linecap="round" />
  <path d="M 209.488 0.355 c 8.492 16.564 6.34 33.751 6.914 53.98 c -11.268 -7.985 -26.242 -31.437 -44.863 -33.871 C 190.182 6.509 200.573 1.906 209.49 0.355 z" style="stroke: #000; stroke-width: 0.71; stroke-dasharray: none; stroke-linecap: butt; stroke-linejoin: miter; stroke-miterlimit: 10; fill: rgb(0,0,0); fill-rule: evenodd; opacity: 1;" transform="" stroke-linecap="round" />
  <path d="M 67.256 1.177 c -9.587 18.358 -9.85 44.232 -5.287 60.258 c 10.466 -8.173 20.593 -32.147 37.888 -34.639 C 86.363 3.152 75.7 6.736 67.257 1.177 z" style="stroke: #000; stroke-width: 0.69; stroke-dasharray: none; stroke-linecap: butt; stroke-linejoin: miter; stroke-miterlimit: 10; fill: rgb(0,0,0); fill-rule: evenodd; opacity: 1;" transform="" stroke-linecap="round" />
  <path d="M 137.684 16.304 c 53.099 -5.395 76.51 15.044 88.25 61.534 c 9.33 42.64 -34.777 69.192 -65.12 78.24 c -33.993 5.194 -57.218 -10.286 -89.594 -25.528 c -13.402 -16.774 -12.603 -59.927 -5.939 -78.223 c 17.264 -28.052 42.099 -32.656 72.403 -36.023 z" style="stroke: #000; stroke-width: 0.85; stroke-dasharray: none; stroke-linecap: butt; stroke-linejoin: miter; stroke-miterlimit: 10; fill: rgb(0,0,0); fill-rule: evenodd; opacity: 1;" transform="" stroke-linecap="round" />
  <path d="M 81.678 99.02 c 4.675 28.37 55.303 31.494 55.239 3.056 c -1.949 -26.875 -37.475 -44.577 -55.239 -3.057 z" style="stroke: #000; stroke-width: 1.04; stroke-dasharray: none; stroke-linecap: butt; stroke-linejoin: miter; stroke-miterlimit: 10; fill: #bfec57; fill-rule: evenodd; opacity: 1;" transform="" stroke-linecap="round" />
  <path d="M 195.071 545.225 a 4.557 2.878 0 1 1 -9.113 0 a 4.557 2.878 0 1 1 9.113 0 z" style="stroke: #000; stroke-width: 0.28; stroke-dasharray: none; stroke-linecap: square; stroke-linejoin: miter; stroke-miterlimit: 4; fill: rgb(0,0,0); fill-rule: nonzero; opacity: 1;" transform=" matrix(-1.67868 0 0 8.11286 435.2 -4324.539) " stroke-linecap="round" />
  <path d="M 117.137 106.93 a 2.407 3.642 0 1 1 4.813 0 a 2.407 3.642 0 1 1 -4.813 0 z" style="stroke: none; stroke-width: 1.28; stroke-dasharray: none; stroke-linecap: square; stroke-linejoin: miter; stroke-miterlimit: 4; fill: #fff; fill-rule: nonzero; opacity: 1;" transform="" stroke-linecap="round" />
  <path d="M 198.196 221.513 c 29.79 0.345 57.15 -5.83 87.44 -5.83 M 195.281 244.83 c 31.653 0.086 61.622 9.725 91.326 19.431 M 191.395 259.403 c 21.27 15.685 61.067 21.515 79.667 38.862 M 20.403 195.281 c -30.397 -13.34 -61.413 -27.5 -95.212 -23.317 M 13.602 212.77 c -33.172 -2.746 -70.05 -14.752 -102.013 -0.972 M 27.203 237.058 c -38.791 1.296 -66.07 -5.058 -102.012 11.658" style="stroke: #000; stroke-width: 1.53; stroke-dasharray: none; stroke-linecap: butt; stroke-linejoin: miter; stroke-miterlimit: 10; fill: none; fill-rule: evenodd; opacity: 1;" transform=" matrix(-0.71122 0 0 0.59697 225.049 -19.497) " stroke-linecap="round" />
  <path d="M 288.403 372.701 c 7.83 47.526 92.639 52.757 92.531 5.12 c -3.264 -45.018 -62.775 -74.672 -92.531 -5.12 z" style="stroke: #000; stroke-width: 1.7; stroke-dasharray: none; stroke-linecap: butt; stroke-linejoin: miter; stroke-miterlimit: 10; fill: #bfec57; fill-rule: evenodd; opacity: 1;" transform=" matrix(-0.63164 0 0 0.59697 399.14 -128.534) " stroke-linecap="round" />
  <path d="M 195.071 545.225 a 4.557 2.878 0 1 1 -9.113 0 a 4.557 2.878 0 1 1 9.113 0 z" style="stroke: #000; stroke-width: 0.28; stroke-dasharray: none; stroke-linecap: square; stroke-linejoin: miter; stroke-miterlimit: 4; fill: rgb(0,0,0); fill-rule: nonzero; opacity: 1;" transform=" matrix(1.77617 0 0 8.11286 -141.531 -4330.324) " stroke-linecap="round" />
  <path d="M 204.763 102.59 a 2.546 3.642 0 1 1 -5.093 0 a 2.546 3.642 0 1 1 5.093 0 z" style="stroke: none; stroke-width: 1.25; stroke-dasharray: none; stroke-linecap: square; stroke-linejoin: miter; stroke-miterlimit: 4; fill: #fff; fill-rule: nonzero; opacity: 1;" transform="" stroke-linecap="round" />
  <path d="M 99.103 150.843 c 0 1.19 -3.782 15.253 -5.372 20.023 c -2.42 7.261 2.841 17.116 5.372 23.443 c 2.9 7.25 9.57 15.43 14.651 20.512 c 2.734 2.734 5.194 6.66 8.303 9.768 c 0.737 0.737 1.628 1.302 2.442 1.953 c 1.708 1.367 3.761 1.637 5.372 2.442 c 1.71 0.856 4.79 0.39 6.349 0 c 1.686 -0.421 2.344 -3.223 2.93 -4.395 c 1.032 -2.063 0.568 -6.523 0 -8.791 c -0.736 -2.945 -3.992 -7.497 -5.372 -10.256 c -1.647 -3.294 -3.84 -7.563 -5.86 -10.256 c -1.629 -2.171 -1.741 -5.923 -2.93 -8.303 c -0.958 -1.913 -0.978 -6.093 -0.978 -8.302 c 0 -2.644 -0.937 -6.154 -1.465 -8.791 c -0.581 -2.909 -0.717 -5.8 -1.465 -8.791 c -0.74 -2.964 -2.318 -5.126 -3.419 -7.326 c -1.111 -2.224 -2.036 -2.972 -3.907 -3.907 c -2.01 -1.005 -3.24 -1.954 -5.86 -1.954 c -2.663 0 -3.73 1.132 -5.373 1.954 c -1.06 0.53 -2.318 0.536 -3.418 0.977 z" style="stroke: #fff; stroke-width: 1; stroke-dasharray: none; stroke-linecap: butt; stroke-linejoin: miter; stroke-miterlimit: 10; fill: rgb(0,0,0); fill-rule: evenodd; opacity: 1;" transform="" stroke-linecap="round" />
  <path d="M 133.126 210.126 c 4.305 2.173 4.834 0.48 6.597 4.04 c 1.273 2.57 10.516 10.165 -1.166 15.153 c -1.701 0.727 -6.133 -0.898 -7.532 -0.545 c -5.25 1.325 -7.814 -3.683 -10.152 -4.674 c -2.268 -11.724 2.942 -6.504 12.253 -13.974 z" style="stroke: #000; stroke-width: 1.06; stroke-dasharray: none; stroke-linecap: butt; stroke-linejoin: miter; stroke-miterlimit: 10; fill: #fff; fill-rule: evenodd; opacity: 1;" transform="" stroke-linecap="round" />
  <path d="M 191.776 152.371 c -11.607 -1.896 -23.54 0.013 -34.187 -5.567 c -2.021 -1.011 -6.614 -1.898 -8.79 -2.442 c -10.579 -0.528 -21.297 0.086 -31.746 1.953 c -0.226 0.045 -0.325 0.326 -0.488 0.489 c -14.942 1.795 -28.513 7.83 -43.589 9.474 c -4.176 0 -4.353 2.042 -6.715 3.224 c -3.698 1.849 -3.858 0.878 -5.372 3.907 c -1.094 2.187 -9.035 8.649 1.001 12.893 c 1.462 0.618 5.27 -0.764 6.471 -0.464 c 4.51 1.127 5.864 -3.638 10.598 -3.638 c 4.158 0 8.025 0.488 12.21 0.488 c 13.212 0 25.416 -7.863 38.729 -7.863 c 5.21 0 12.397 4.835 17.606 4.835 c 7.426 0 14.36 5.47 21.806 5.47 c 14.876 1.679 18.354 -3.484 32.844 0.684 c 1.87 -0.935 4.371 -7.6 4.371 -10.037 c 0 -3.192 -5.23 -8.899 -6.129 -10.695 c -0.754 -1.509 -6.824 -2.262 -8.62 -2.71 z" style="stroke: #fff; stroke-width: 1; stroke-dasharray: none; stroke-linecap: butt; stroke-linejoin: miter; stroke-miterlimit: 10; fill: rgb(0,0,0); fill-rule: evenodd; opacity: 1;" transform="" stroke-linecap="round" />
  <path d="M 68.568 158.333 c -4.369 2.173 -4.906 0.48 -6.695 4.04 c -1.292 2.571 -10.674 10.165 1.183 15.154 c 1.727 0.727 6.225 -0.898 7.645 -0.545 c 5.328 1.325 7.932 -3.683 10.304 -4.674 c 2.302 -11.724 -2.986 -6.504 -12.437 -13.975 z" style="stroke: #000; stroke-width: 1.06; stroke-dasharray: none; stroke-linecap: butt; stroke-linejoin: miter; stroke-miterlimit: 10; fill: #fff; fill-rule: evenodd; opacity: 1;" transform="" stroke-linecap="round" />
  <path d="M 63.844 246.575 c 9.7 2.775 26.956 0.977 36.993 0.977 h 15.366 c 10.705 0 21.56 -2.93 32.44 -2.93 c 6.64 0 13.28 4.395 19.92 4.395 c 11.772 -0.923 17.435 -8.372 9.106 -16.605 c -5.513 -4.731 -20.114 -6.578 -27.318 -7.814 c -6.825 -1.172 -14.002 -0.977 -21.058 -0.977 c -5.593 0 -51.71 -2.779 -57.57 -2.779" style="stroke: #fff; stroke-width: 1; stroke-dasharray: none; stroke-linecap: butt; stroke-linejoin: miter; stroke-miterlimit: 10; fill: rgb(0,0,0); fill-rule: evenodd; opacity: 1;" transform="" stroke-linecap="round" />
</g>
<g style="stroke: none; stroke-width: 1; stroke-dasharray: none; stroke-linecap: butt; stroke-linejoin: miter; stroke-miterlimit: 10; fill: none; fill-rule: nonzero; opacity: 1;" transform="translate(10 118.34000000000003) scale(0.65 0.65)" >
  <path d="m 60.5 28.3 l 10 2 c 0 -2 0 -4 -1 -6 c -4 -13 -18 -19.99 -30 -15.99 c -1 1 -3 1 -4 1.99 l 6 -8.99 c -2 -0.999 -4 -0.999 -7 -0.999 c -13 0 -24 9.989 -24 23.989 c 0 1 0 2 1 3 l -7.03 -8 c -1 2 -3 4 -3 6 c -4 13 2 26 15.03 31 c 1 0 3 0 4 0 l -10 4 c 1 2 3 4 5 5 c 10 8 25 6 33 -5 c 1 -1 2 -2 2 -3 l 1 11 c 2 -1 4 -2 6 -4 c 11 -7 13 -22 5 -33 c 0 -1 -1 -2 -2 -3 z m -9 27 c -8 7 -20 8 -29 1 c -9 -5 -14.03 -16 -11 -27 c 3 -10 12 -18 23 -18 c 10 -1 20 6 24 16 c 4 10 1 21 -7 28 z" style="stroke: none; stroke-width: 1; stroke-dasharray: none; stroke-linecap: butt; stroke-linejoin: miter; stroke-miterlimit: 10; fill: #216778; fill-rule: nonzero; opacity: 1;" transform="" stroke-linecap="round" />
  <path d="m 40.5 33.3 l 3 1 c 0 -1 0 -1 -1 -2 c -1 -2 -3 -4 -6 -3 c -1 0 -1 0 -1 0 l 1 -2 c 0 0 -1 0 -1 0 c -3 0 -5 2 -5 5 c 0 1 0 1 0 1 l -2 -2 c 0 1 0 1 -1 2 c 0 2 1 5 4 6 c 0 0 0 0 1 0 l -3 1 c 1 1 1 1 1 1 c 3 2 6 2 8 -1 c 0 0 0 0 0 0 l 0 2 c 1 0 1 0 2 -1 c 2 -1 3 -5 1 -7 c 0 0 0 -1 -1 -1 z m -2 6 c -1 2 -4 2 -6 0 c -2 -1 -3 -3 -2 -5 c 0 -3 2 -4 5 -4 c 2 -1 4 1 5 3 c 1 2 0 5 -2 6 z" style="stroke: none; stroke-width: 1; stroke-dasharray: none; stroke-linecap: butt; stroke-linejoin: miter; stroke-miterlimit: 10; fill: #536c5d; fill-rule: nonzero; opacity: 1;" transform="" stroke-linecap="round" />
  <path d="m 21.5 31.3 l -5 1 c 0 -1 0 -2 0 -3 c 3 -7 10 -11 17 -9 c 0 1 1 1 2 1 l -3 -5 c 1 0 2 0 3 0 c 7 0 13 6 13 13 c 0 0 0 1 0 2 l 4 -5 c 0 1 1 2 1 4 c 3 6 -1 14 -8 16 c -1 0 -1 0 -2 1 l 6 2 c -1 1 -2 1 -3 2 c -6 4 -14 3 -18 -3 c -1 0 -1 -1 -1 -1 l -1 5 c -1 0 -2 0 -3 -1 c -6 -4 -7 -13 -3 -18 c 1 -1 1 -2 1 -2 z m 5 15 c 5 3 11 4 16 1 c 5 -4 7 -10 6 -15 c -2 -6 -7 -10 -13 -10 c -5 0 -11 3 -13 8 c -2 6 0 12 4 16 z" style="stroke: none; stroke-width: 1; stroke-dasharray: none; stroke-linecap: butt; stroke-linejoin: miter; stroke-miterlimit: 10; fill: #00d4aa; fill-rule: nonzero; opacity: 1;" transform="" stroke-linecap="round" />
  <circle cx="196" cy="106" r="1.38" style="stroke: none; stroke-width: 1; stroke-dasharray: none; stroke-linecap: butt; stroke-linejoin: miter; stroke-miterlimit: 10; fill: #2b0079; fill-rule: nonzero; opacity: 1;" transform="  matrix(1 0 0 1 -151 -103) "/>
  <circle cx="201" cy="106" r="1.06" style="stroke: none; stroke-width: 1; stroke-dasharray: none; stroke-linecap: butt; stroke-linejoin: miter; stroke-miterlimit: 10; fill: #2b0079; fill-rule: nonzero; opacity: 1;" transform="  matrix(1 0 0 1 -151 -103) "/>
  <circle cx="206.00400000000002" cy="108.00399999999999" r="0.764" style="stroke: none; stroke-width: 1; stroke-dasharray: none; stroke-linecap: butt; stroke-linejoin: miter; stroke-miterlimit: 10; fill: #2b0079; fill-rule: nonzero; opacity: 1;" transform="  matrix(1 0 0 1 -151 -103) "/>
  <circle cx="219" cy="136" r="1.38" style="stroke: none; stroke-width: 1; stroke-dasharray: none; stroke-linecap: butt; stroke-linejoin: miter; stroke-miterlimit: 10; fill: #2b0079; fill-rule: nonzero; opacity: 1;" transform="  matrix(1 0 0 1 -151 -103) "/>
  <circle cx="221" cy="142" r="1.06" style="stroke: none; stroke-width: 1; stroke-dasharray: none; stroke-linecap: butt; stroke-linejoin: miter; stroke-miterlimit: 10; fill: #2b0079; fill-rule: nonzero; opacity: 1;" transform="  matrix(1 0 0 1 -151 -103) "/>
  <circle cx="221.00400000000002" cy="146.00400000000002" r="0.764" style="stroke: none; stroke-width: 1; stroke-dasharray: none; stroke-linecap: butt; stroke-linejoin: miter; stroke-miterlimit: 10; fill: #2b0079; fill-rule: nonzero; opacity: 1;" transform="  matrix(1 0 0 1 -151 -103) "/>
  <path d="m 198 170 c -1 0 -2 -1 -2 -1 c 1 -1 1 -2 2 -2 c 1 0 1 1 1 2 c 0 1 -1 1 -1 1 z" style="stroke: none; stroke-width: 1; stroke-dasharray: none; stroke-linecap: butt; stroke-linejoin: miter; stroke-miterlimit: 10; fill: #2b0079; fill-rule: nonzero; opacity: 1;" transform=" matrix(1 0 0 1 -151 -103) " stroke-linecap="round" />
  <circle cx="193" cy="172" r="1.06" style="stroke: none; stroke-width: 1; stroke-dasharray: none; stroke-linecap: butt; stroke-linejoin: miter; stroke-miterlimit: 10; fill: #2b0079; fill-rule: nonzero; opacity: 1;" transform="  matrix(1 0 0 1 -151 -103) "/>
  <circle cx="189.00400000000002" cy="174.00400000000002" r="0.764" style="stroke: none; stroke-width: 1; stroke-dasharray: none; stroke-linecap: butt; stroke-linejoin: miter; stroke-miterlimit: 10; fill: #2b0079; fill-rule: nonzero; opacity: 1;" transform="  matrix(1 0 0 1 -151 -103) "/>
  <circle cx="160" cy="159" r="1.38" style="stroke: none; stroke-width: 1; stroke-dasharray: none; stroke-linecap: butt; stroke-linejoin: miter; stroke-miterlimit: 10; fill: #2b0079; fill-rule: nonzero; opacity: 1;" transform="  matrix(1 0 0 1 -151 -103) "/>
  <circle cx="156" cy="156" r="1.06" style="stroke: none; stroke-width: 1; stroke-dasharray: none; stroke-linecap: butt; stroke-linejoin: miter; stroke-miterlimit: 10; fill: #2b0079; fill-rule: nonzero; opacity: 1;" transform="  matrix(1 0 0 1 -151 -103) "/>
  <circle cx="153.00400000000002" cy="152.00400000000002" r="0.764" style="stroke: none; stroke-width: 1; stroke-dasharray: none; stroke-linecap: butt; stroke-linejoin: miter; stroke-miterlimit: 10; fill: #2b0079; fill-rule: nonzero; opacity: 1;" transform="  matrix(1 0 0 1 -151 -103) "/>
  <path d="m 158 118 c 1 0 2 0 2 1 c 0 1 0 1 -1 2 c 0 0 -1 0 -1 -1 c -1 -1 -1 -1 0 -2 z" style="stroke: none; stroke-width: 1; stroke-dasharray: none; stroke-linecap: butt; stroke-linejoin: miter; stroke-miterlimit: 10; fill: #2b0079; fill-rule: nonzero; opacity: 1;" transform=" matrix(1 0 0 1 -151 -103) " stroke-linecap="round" />
  <circle cx="160" cy="114" r="1.06" style="stroke: none; stroke-width: 1; stroke-dasharray: none; stroke-linecap: butt; stroke-linejoin: miter; stroke-miterlimit: 10; fill: #2b0079; fill-rule: nonzero; opacity: 1;" transform="  matrix(1 0 0 1 -151 -103) "/>
  <circle cx="163.00400000000002" cy="110.00399999999999" r="0.764" style="stroke: none; stroke-width: 1; stroke-dasharray: none; stroke-linecap: butt; stroke-linejoin: miter; stroke-miterlimit: 10; fill: #2b0079; fill-rule: nonzero; opacity: 1;" transform="  matrix(1 0 0 1 -151 -103) "/>
  <circle cx="181.004" cy="121.004" r="0.774" style="stroke: none; stroke-width: 1; stroke-dasharray: none; stroke-linecap: butt; stroke-linejoin: miter; stroke-miterlimit: 10; fill: #2b0079; fill-rule: nonzero; opacity: 1;" transform="  matrix(1 0 0 1 -151 -103) "/>
  <circle cx="177.002" cy="121.002" r="0.592" style="stroke: none; stroke-width: 1; stroke-dasharray: none; stroke-linecap: butt; stroke-linejoin: miter; stroke-miterlimit: 10; fill: #2b0079; fill-rule: nonzero; opacity: 1;" transform="  matrix(1 0 0 1 -151 -103) "/>
  <circle cx="174.998" cy="120.99799999999999" r="0.428" style="stroke: none; stroke-width: 1; stroke-dasharray: none; stroke-linecap: butt; stroke-linejoin: miter; stroke-miterlimit: 10; fill: #2b0079; fill-rule: nonzero; opacity: 1;" transform="  matrix(1 0 0 1 -151 -103) "/>
  <circle cx="168.004" cy="137.004" r="0.774" style="stroke: none; stroke-width: 1; stroke-dasharray: none; stroke-linecap: butt; stroke-linejoin: miter; stroke-miterlimit: 10; fill: #2b0079; fill-rule: nonzero; opacity: 1;" transform="  matrix(1 0 0 1 -151 -103) "/>
  <circle cx="167.002" cy="140.002" r="0.592" style="stroke: none; stroke-width: 1; stroke-dasharray: none; stroke-linecap: butt; stroke-linejoin: miter; stroke-miterlimit: 10; fill: #2b0079; fill-rule: nonzero; opacity: 1;" transform="  matrix(1 0 0 1 -151 -103) "/>
  <circle cx="165.99699999999999" cy="142.99699999999999" r="0.427" style="stroke: none; stroke-width: 1; stroke-dasharray: none; stroke-linecap: butt; stroke-linejoin: miter; stroke-miterlimit: 10; fill: #2b0079; fill-rule: nonzero; opacity: 1;" transform="  matrix(1 0 0 1 -151 -103) "/>
  <circle cx="179.003" cy="155.003" r="0.773" style="stroke: none; stroke-width: 1; stroke-dasharray: none; stroke-linecap: butt; stroke-linejoin: miter; stroke-miterlimit: 10; fill: #2b0079; fill-rule: nonzero; opacity: 1;" transform="  matrix(1 0 0 1 -151 -103) "/>
  <circle cx="182.002" cy="157.002" r="0.592" style="stroke: none; stroke-width: 1; stroke-dasharray: none; stroke-linecap: butt; stroke-linejoin: miter; stroke-miterlimit: 10; fill: #2b0079; fill-rule: nonzero; opacity: 1;" transform="  matrix(1 0 0 1 -151 -103) "/>
  <circle cx="183.99699999999999" cy="157.99699999999999" r="0.427" style="stroke: none; stroke-width: 1; stroke-dasharray: none; stroke-linecap: butt; stroke-linejoin: miter; stroke-miterlimit: 10; fill: #2b0079; fill-rule: nonzero; opacity: 1;" transform="  matrix(1 0 0 1 -151 -103) "/>
  <circle cx="200.004" cy="150.004" r="0.774" style="stroke: none; stroke-width: 1; stroke-dasharray: none; stroke-linecap: butt; stroke-linejoin: miter; stroke-miterlimit: 10; fill: #2b0079; fill-rule: nonzero; opacity: 1;" transform="  matrix(1 0 0 1 -151 -103) "/>
  <circle cx="203.003" cy="148.003" r="0.593" style="stroke: none; stroke-width: 1; stroke-dasharray: none; stroke-linecap: butt; stroke-linejoin: miter; stroke-miterlimit: 10; fill: #2b0079; fill-rule: nonzero; opacity: 1;" transform="  matrix(1 0 0 1 -151 -103) "/>
  <circle cx="204.998" cy="145.998" r="0.428" style="stroke: none; stroke-width: 1; stroke-dasharray: none; stroke-linecap: butt; stroke-linejoin: miter; stroke-miterlimit: 10; fill: #2b0079; fill-rule: nonzero; opacity: 1;" transform="  matrix(1 0 0 1 -151 -103) "/>
  <circle cx="201.004" cy="128.004" r="0.774" style="stroke: none; stroke-width: 1; stroke-dasharray: none; stroke-linecap: butt; stroke-linejoin: miter; stroke-miterlimit: 10; fill: #2b0079; fill-rule: nonzero; opacity: 1;" transform="  matrix(1 0 0 1 -151 -103) "/>
  <circle cx="200.003" cy="125.003" r="0.593" style="stroke: none; stroke-width: 1; stroke-dasharray: none; stroke-linecap: butt; stroke-linejoin: miter; stroke-miterlimit: 10; fill: #2b0079; fill-rule: nonzero; opacity: 1;" transform="  matrix(1 0 0 1 -151 -103) "/>
  <circle cx="198.998" cy="122.99799999999999" r="0.428" style="stroke: none; stroke-width: 1; stroke-dasharray: none; stroke-linecap: butt; stroke-linejoin: miter; stroke-miterlimit: 10; fill: #2b0079; fill-rule: nonzero; opacity: 1;" transform="  matrix(1 0 0 1 -151 -103) "/>
</g>
<g style="stroke: none; stroke-width: 1; stroke-dasharray: none; stroke-linecap: butt; stroke-linejoin: miter; stroke-miterlimit: 10; fill: none; fill-rule: nonzero; opacity: 1;" transform="translate(41 37.84000000000003) scale(0.54 0.54)" >
  <path d="m 45 16.4 c 7 0 13 4 17 9 l -5 3 c -3 -3 -7 -5 -12 -6 l 0 -6 l 0 0 z m -7 6 c -9 2 -16 10 -16 20 c 0 2 0 4 1 6 l -6 3 c -1 -3 -1 -6 -1 -9 c 0 -14 10 -25 22 -26 l 0 6 l 0 0 z m -12 32 c 3 4 8 7 12 7 l 0 7 c -7 -1 -13 -5 -17 -11 l 5 -3 l 0 0 z m 19 7 c 9 -1 17 -9 17 -19 c 0 -3 -1 -5 -1 -7 l 5 -4 c 1 4 2 7 2 11 c 0 13 -10 24 -23 26 l 0 -7 l 0 0 z" style="stroke: none; stroke-width: 1; stroke-dasharray: none; stroke-linecap: butt; stroke-linejoin: miter; stroke-miterlimit: 10; fill: #ff8c00; fill-rule: evenodd; opacity: 1;" transform="" stroke-linecap="round" />
  <path d="m 84 47.4 c -2 11 -7 21 -16 28 l -5 -9 c 6 -5 9 -12 10 -19 l 11 0 l 0 0 z m -11 -11 c -2 -15 -15 -26 -31 -26 c -4 0 -7 0 -11 1 L 26 3.37 c 5 -2 10 -2.996 16 -2.996 c 21 0 39 16.026 42 36.026 l -11 0 l 0 0 z m -51 -19 c -6 5 -10 11 -12.02 19 l -10.004 0 C 1.98 25.4 7.98 15.4 17 8.37 l 5 9.03 l 0 0 z m -12.02 30 c 3.02 15 16.02 27 32.02 27 c 4 0 8 -1 11 -2 l 5 8 c -5 3 -10 4 -16 4 c -22 0 -40.02 -16 -42.024 -37 l 10.004 0 l 0 0 z" style="stroke: none; stroke-width: 1; stroke-dasharray: none; stroke-linecap: butt; stroke-linejoin: miter; stroke-miterlimit: 10; fill: #ff4500; fill-rule: evenodd; opacity: 1;" transform="" stroke-linecap="round" />
  <polygon points="488,285 484,288 485,283 481,280 486,280 488,275 488,275 489,280 494,280 490,283 492,288 " style="stroke: none; stroke-width: 1; stroke-dasharray: none; stroke-linecap: butt; stroke-linejoin: miter; stroke-miterlimit: 10; fill: #dc143c; fill-rule: nonzero; opacity: 1;" transform="  matrix(2 0 0 2 -932 -522) "/>
</g>
<g style="stroke: none; stroke-width: 1; stroke-dasharray: none; stroke-linecap: butt; stroke-linejoin: miter; stroke-miterlimit: 10; fill: none; fill-rule: nonzero; opacity: 1;" transform="translate(204 112.11000000000003) scale(0.8 0.8)" >
  <path d="m 33 32.9 c 0 0 -6 -16 9 -22 c 11 -3.98 11 9 5 9 c -14 0 -14 13 -14 13 z" style="stroke: none; stroke-width: 1; stroke-dasharray: none; stroke-linecap: butt; stroke-linejoin: miter; stroke-miterlimit: 10; fill: #662d91; fill-rule: nonzero; opacity: 1;" transform="" stroke-linecap="round" />
  <path d="m 33 32.9 c 0 0 7 -16 22 -9 c 11 5 2 14 -3 9 c -10 -9 -19 0 -19 0 z" style="stroke: none; stroke-width: 1; stroke-dasharray: none; stroke-linecap: butt; stroke-linejoin: miter; stroke-miterlimit: 10; fill: #662d91; fill-rule: nonzero; opacity: 1;" transform="" stroke-linecap="round" />
  <path d="m 33 32.9 c 0 0 16 -6 22 9 c 4 11 -9 11 -9 5 c 0 -14 -13 -14 -13 -14 z" style="stroke: none; stroke-width: 1; stroke-dasharray: none; stroke-linecap: butt; stroke-linejoin: miter; stroke-miterlimit: 10; fill: #662d91; fill-rule: nonzero; opacity: 1;" transform="" stroke-linecap="round" />
  <path d="m 33 32.9 c 0 0 15 7 9 22 c -5 11 -14 2 -9 -3 c 9 -10 0 -19 0 -19 z" style="stroke: none; stroke-width: 1; stroke-dasharray: none; stroke-linecap: butt; stroke-linejoin: miter; stroke-miterlimit: 10; fill: #662d91; fill-rule: nonzero; opacity: 1;" transform="" stroke-linecap="round" />
  <path d="m 33 32.9 c 0 0 6 16 -9 22 c -11 4 -12 -9 -5 -9 c 14 0 14 -13 14 -13 z" style="stroke: none; stroke-width: 1; stroke-dasharray: none; stroke-linecap: butt; stroke-linejoin: miter; stroke-miterlimit: 10; fill: #662d91; fill-rule: nonzero; opacity: 1;" transform="" stroke-linecap="round" />
  <path d="m 33 32.9 c 0 0 -7 15 -22 9 c -11.013 -5 -2.01 -14 3 -9 c 9 9 19 0 19 0 z" style="stroke: none; stroke-width: 1; stroke-dasharray: none; stroke-linecap: butt; stroke-linejoin: miter; stroke-miterlimit: 10; fill: #662d91; fill-rule: nonzero; opacity: 1;" transform="" stroke-linecap="round" />
  <path d="m 33 32.9 c 0 0 -16 6 -22 -9 c -4.01 -11 8 -12 9 -5 c 0 14 13 14 13 14 z" style="stroke: none; stroke-width: 1; stroke-dasharray: none; stroke-linecap: butt; stroke-linejoin: miter; stroke-miterlimit: 10; fill: #662d91; fill-rule: nonzero; opacity: 1;" transform="" stroke-linecap="round" />
  <path d="m 33 32.9 c 0 0 -16 -7 -9 -22 c 5 -10.981 14 -1.98 9 3 c -9 10 0 19 0 19 z" style="stroke: none; stroke-width: 1; stroke-dasharray: none; stroke-linecap: butt; stroke-linejoin: miter; stroke-miterlimit: 10; fill: #662d91; fill-rule: nonzero; opacity: 1;" transform="" stroke-linecap="round" />
  <path d="m 21 16.9 c 0 0 -1 -5 -7 -5 c -4.01 0 -4.01 -5.98 2 -4.98 c 6 1 5 7.98 5 9.98 z" style="stroke: none; stroke-width: 1; stroke-dasharray: none; stroke-linecap: butt; stroke-linejoin: miter; stroke-miterlimit: 10; fill: #9454d1; fill-rule: nonzero; opacity: 1;" transform="" stroke-linecap="round" />
  <path d="m 8.99 20.9 c 0 0 -2 -2 0 -6 c 2.01 -2 -1 -4 -3 -1 c -2 4 2 6 3 7 z" style="stroke: none; stroke-width: 1; stroke-dasharray: none; stroke-linecap: butt; stroke-linejoin: miter; stroke-miterlimit: 10; fill: #2b0079; fill-rule: nonzero; opacity: 1;" transform="" stroke-linecap="round" />
  <path d="m 25 7.92 c 0 0 0 -4 4 -4 c 3 0 2 -4.001 -2 -3.001 C 23 1.92 24 5.92 25 7.92 Z" style="stroke: none; stroke-width: 1; stroke-dasharray: none; stroke-linecap: butt; stroke-linejoin: miter; stroke-miterlimit: 10; fill: #2b0079; fill-rule: nonzero; opacity: 1;" transform="" stroke-linecap="round" />
  <path d="m 45 8.92 c 0 0 2 -2 5 0 c 3 1.98 5 -1 2 -3 c -4 -2 -6 2 -7 3 z" style="stroke: none; stroke-width: 1; stroke-dasharray: none; stroke-linecap: butt; stroke-linejoin: miter; stroke-miterlimit: 10; fill: #2b0079; fill-rule: nonzero; opacity: 1;" transform="" stroke-linecap="round" />
  <path d="m 58 24.9 c 0 0 3 0 4 4 c 0 3 4 2 3 -2 c -1 -4 -5 -3 -7 -2 z" style="stroke: none; stroke-width: 1; stroke-dasharray: none; stroke-linecap: butt; stroke-linejoin: miter; stroke-miterlimit: 10; fill: #2b0079; fill-rule: nonzero; opacity: 1;" transform="" stroke-linecap="round" />
  <path d="m 57 44.9 c 0 0 2 2 -1 6 c -1 2 2 4 3 1 c 2 -4 -1 -6 -2 -7 z" style="stroke: none; stroke-width: 1; stroke-dasharray: none; stroke-linecap: butt; stroke-linejoin: miter; stroke-miterlimit: 10; fill: #2b0079; fill-rule: nonzero; opacity: 1;" transform="" stroke-linecap="round" />
  <path d="m 41 57.9 c 0 0 0 3 -4 4 c -3 0 -2 4 1 3 c 5 -1 4 -5 3 -7 z" style="stroke: none; stroke-width: 1; stroke-dasharray: none; stroke-linecap: butt; stroke-linejoin: miter; stroke-miterlimit: 10; fill: #2b0079; fill-rule: nonzero; opacity: 1;" transform="" stroke-linecap="round" />
  <path d="m 21 56.9 c 0 0 -2 2 -6 -1 c -2 -1 -4 2 -1 4 c 4 1 6 -2 7 -3 z" style="stroke: none; stroke-width: 1; stroke-dasharray: none; stroke-linecap: butt; stroke-linejoin: miter; stroke-miterlimit: 10; fill: #2b0079; fill-rule: nonzero; opacity: 1;" transform="" stroke-linecap="round" />
  <path d="m 7.99 40.9 c 0 0 -4 0 -4 -4 c -1 -3 -4.003 -2 -3.003 1 c 1.003 5 5.003 4 7.003 3 z" style="stroke: none; stroke-width: 1; stroke-dasharray: none; stroke-linecap: butt; stroke-linejoin: miter; stroke-miterlimit: 10; fill: #2b0079; fill-rule: nonzero; opacity: 1;" transform="" stroke-linecap="round" />
  <path d="m 36 12.9 c 0 0 3 -3.98 -1 -7.98 c -3 -3 1 -7 4 -3 c 4 6 -1 9.98 -3 10.98 z" style="stroke: none; stroke-width: 1; stroke-dasharray: none; stroke-linecap: butt; stroke-linejoin: miter; stroke-miterlimit: 10; fill: #9454d1; fill-rule: nonzero; opacity: 1;" transform="" stroke-linecap="round" />
  <path d="m 49 20.9 c 0 0 5 0 5 -7 c 0 -3.98 6 -3.98 5 2 c -2 6 -8 5 -10 5 z" style="stroke: none; stroke-width: 1; stroke-dasharray: none; stroke-linecap: butt; stroke-linejoin: miter; stroke-miterlimit: 10; fill: #9454d1; fill-rule: nonzero; opacity: 1;" transform="" stroke-linecap="round" />
  <path d="m 53 35.9 c 0 0 4 3 8 -1 c 3 -3 7 1 3 4 c -6 4 -10 -1 -11 -3 z" style="stroke: none; stroke-width: 1; stroke-dasharray: none; stroke-linecap: butt; stroke-linejoin: miter; stroke-miterlimit: 10; fill: #9454d1; fill-rule: nonzero; opacity: 1;" transform="" stroke-linecap="round" />
  <path d="m 45 48.9 c 0 0 0 5 7 5 c 4 0 4 6 -2 5 c -6 -1 -6 -8 -5 -10 z" style="stroke: none; stroke-width: 1; stroke-dasharray: none; stroke-linecap: butt; stroke-linejoin: miter; stroke-miterlimit: 10; fill: #9454d1; fill-rule: nonzero; opacity: 1;" transform="" stroke-linecap="round" />
  <path d="m 30 52.9 c 0 0 -3 4 1 8 c 3 3 -1 7 -4 3 c -4 -6 1 -10 3 -11 z" style="stroke: none; stroke-width: 1; stroke-dasharray: none; stroke-linecap: butt; stroke-linejoin: miter; stroke-miterlimit: 10; fill: #9454d1; fill-rule: nonzero; opacity: 1;" transform="" stroke-linecap="round" />
  <path d="m 17 44.9 c 0 0 -5 0 -5 7 c 0 4 -6.01 4 -5.01 -2 c 1 -6 8.01 -5 10.01 -5 z" style="stroke: none; stroke-width: 1; stroke-dasharray: none; stroke-linecap: butt; stroke-linejoin: miter; stroke-miterlimit: 10; fill: #9454d1; fill-rule: nonzero; opacity: 1;" transform="" stroke-linecap="round" />
  <path d="m 13 29.9 c 0 0 -4.01 -3 -8.01 1 c -4.003 3 -8 -1 -3 -4 c 6 -4 10.01 1 11.01 3 z" style="stroke: none; stroke-width: 1; stroke-dasharray: none; stroke-linecap: butt; stroke-linejoin: miter; stroke-miterlimit: 10; fill: #9454d1; fill-rule: nonzero; opacity: 1;" transform="" stroke-linecap="round" />
</g>
<g style="stroke: none; stroke-width: 1; stroke-dasharray: none; stroke-linecap: butt; stroke-linejoin: miter; stroke-miterlimit: 10; fill: none; fill-rule: nonzero; opacity: 1;" transform="translate(190 33.910000000000025) scale(0.44 0.44)" >
  <path d="M 61.787 52.875 c 2.652 -8.33 7.408 -18.27 14.885 -23.215 c 5.857 -3.873 12.977 -3.664 18.76 -7.9 c 4.986 -3.652 11.209 -9.477 12.189 -15.867 c -0.76 11.467 0.76 22.477 -4.602 33.172 c -6.309 12.588 -15.277 17.83 -29.184 17.943 c 1.99 -2.818 4.762 -7.455 4.604 -11.023 c -4.621 1.762 -8.688 4.98 -13.176 6.615 c -1.59 0.58 -2.91 1.098 -4.307 0.275" style="stroke: none; stroke-width: 1; stroke-dasharray: none; stroke-linecap: butt; stroke-linejoin: miter; stroke-miterlimit: 10; fill: #F89C33; fill-rule: nonzero; opacity: 1;" transform=" matrix(1 0 0 1 0 0) " stroke-linecap="round" />
  <path d="M 61.787 52.875 c 2.652 -8.33 7.408 -18.27 14.885 -23.215 c 5.857 -3.873 12.977 -3.664 18.76 -7.9 c 4.986 -3.652 11.209 -9.477 12.189 -15.867 c -0.76 11.467 0.76 22.477 -4.602 33.172 c -6.309 12.588 -15.277 17.83 -29.184 17.943 c 1.99 -2.818 4.762 -7.455 4.604 -11.023 c -4.621 1.762 -8.688 4.98 -13.176 6.615 c -1.59 0.58 -2.91 1.098 -4.307 0.275" style="stroke: none; stroke-width: 1; stroke-dasharray: none; stroke-linecap: butt; stroke-linejoin: miter; stroke-miterlimit: 10; fill: #F89C33; fill-rule: nonzero; opacity: 1;" transform=" matrix(1 0 0 1 0 0) " stroke-linecap="round" />
  <path d="M 59.777 59.898 c -6.773 -5.527 -14.264 -13.607 -16.115 -22.379 c -1.447 -6.873 1.365 -13.412 -0.445 -20.35 C 41.656 11.189 38.529 3.26 32.945 0 C 43.328 4.922 54.127 7.559 62.1 16.479 c 9.385 10.494 10.961 20.764 5.951 33.736 c -1.889 -2.889 -5.18 -7.17 -8.557 -8.334 c -0.061 4.943 1.436 9.912 1.307 14.686 c -0.047 1.689 -0.053 3.109 -1.33 4.105" style="stroke: none; stroke-width: 1; stroke-dasharray: none; stroke-linecap: butt; stroke-linejoin: miter; stroke-miterlimit: 10; fill: #F89C33; fill-rule: nonzero; opacity: 1;" transform=" matrix(1 0 0 1 0 0) " stroke-linecap="round" />
  <path d="M 65.568 64.352 c -7.633 4.266 -17.898 8.262 -26.736 6.752 c -6.924 -1.178 -11.971 -6.199 -19.086 -7.068 C 13.609 63.289 5.086 63.279 0 67.271 c 8.396 -7.846 14.818 -16.914 26.045 -21.051 c 13.215 -4.865 23.344 -2.555 33.561 6.875 c -3.377 0.693 -8.57 2.182 -10.895 4.893 c 4.574 1.875 9.742 2.309 14.135 4.188 c 1.557 0.664 2.873 1.191 3.33 2.746" style="stroke: none; stroke-width: 1; stroke-dasharray: none; stroke-linecap: butt; stroke-linejoin: miter; stroke-miterlimit: 10; fill: #F89C33; fill-rule: nonzero; opacity: 1;" transform=" matrix(1 0 0 1 0 0) " stroke-linecap="round" />
  <path d="M 71.842 60.604 c 1.156 8.666 1.096 19.684 -3.557 27.348 c -3.643 6.004 -10.168 8.85 -13.592 15.146 c -2.953 5.434 -6.094 13.355 -4.254 19.555 c -4.207 -10.695 -10.277 -20.004 -9.996 -31.965 c 0.336 -14.076 6.209 -22.645 18.736 -28.68 c -0.598 3.398 -1.125 8.773 0.543 11.932 c 3.426 -3.563 5.73 -8.211 9.092 -11.605 c 1.189 -1.201 2.166 -2.23 3.779 -2.084" style="stroke: none; stroke-width: 1; stroke-dasharray: none; stroke-linecap: butt; stroke-linejoin: miter; stroke-miterlimit: 10; fill: #F89C33; fill-rule: nonzero; opacity: 1;" transform=" matrix(1 0 0 1 0 0) " stroke-linecap="round" />
  <path d="M 70.662 53.393 c 8.482 2.109 18.709 6.219 24.121 13.363 c 4.244 5.598 4.492 12.713 9.088 18.213 c 3.967 4.742 10.178 10.578 16.617 11.145 c -11.49 -0.02 -22.379 2.205 -33.398 -2.457 c -12.967 -5.49 -18.775 -14.104 -19.779 -27.975 c 2.939 1.807 7.746 4.273 11.297 3.885 c -2.057 -4.494 -5.527 -8.35 -7.449 -12.723 c -0.68 -1.549 -1.279 -2.832 -0.549 -4.281" style="stroke: none; stroke-width: 1; stroke-dasharray: none; stroke-linecap: butt; stroke-linejoin: miter; stroke-miterlimit: 10; fill: #F89C33; fill-rule: nonzero; opacity: 1;" transform=" matrix(1 0 0 1 0 0) " stroke-linecap="round" />
</g>
<g style="stroke: none; stroke-width: 1; stroke-dasharray: none; stroke-linecap: butt; stroke-linejoin: miter; stroke-miterlimit: 10; fill: none; fill-rule: nonzero; opacity: 1;" transform="translate(125.81999999999995 10) scale(0.29 0.28) matrix(1 0 0 -1 0 51.2)" >
  <path d="M 38.637 19.345 c 0 0 -2.971 -14.649 -11.748 -17.622 C 18.116 -1.248 7.571 0.026 0 2.502 c 0 0 4.811 3.68 7.571 6.653 c 2.76 2.971 7.833 9.128 12.641 10.291 C 24.884 20.576 30.925 20.478 38.637 19.345" style="stroke: none; stroke-width: 1; stroke-dasharray: none; stroke-linecap: butt; stroke-linejoin: miter; stroke-miterlimit: 10; fill: #168A3E; fill-rule: nonzero; opacity: 1;" transform=" matrix(1 0 0 1 0 0) " stroke-linecap="round" />
  <path d="M 68.424 37.157 c 0 0 -0.926 -11.71 -7.489 -14.863 c -6.563 -3.151 -14.486 -3.174 -20.599 -2.001 c 0.372 1.66 1.539 4.925 4.414 8.283 c 2.549 2.973 6.273 5.38 9.837 6.935 C 58.152 37.065 62.297 37.307 68.424 37.157" style="stroke: none; stroke-width: 1; stroke-dasharray: none; stroke-linecap: butt; stroke-linejoin: miter; stroke-miterlimit: 10; fill: #168A3E; fill-rule: nonzero; opacity: 1;" transform=" matrix(1 0 0 1 0 0) " stroke-linecap="round" />
  <path d="M 38.85 20.478 c 0 0 -16.059 1.638 -22.502 5.732 c -5.883 3.737 -10.475 14.01 -5.52 23.99 c 0 0 4.122 -2.456 8.259 -3.916 c 3.787 -1.337 16.296 -5.496 19.34 -11.017 C 41.467 29.747 39.841 23.804 38.85 20.478" style="stroke: none; stroke-width: 1; stroke-dasharray: none; stroke-linecap: butt; stroke-linejoin: miter; stroke-miterlimit: 10; fill: #48B84E; fill-rule: nonzero; opacity: 1;" transform=" matrix(1 0 0 1 0 0) " stroke-linecap="round" />
  <path d="M 53.347 0.574 c 0 0 2.324 7.667 1.294 10.346 c -1.123 2.925 -5.464 7.425 -14.599 8.064 c 0 0 -3.938 -10.824 -0.059 -14.358 C 43.864 1.091 53.347 0.574 53.347 0.574" style="stroke: none; stroke-width: 1; stroke-dasharray: none; stroke-linecap: butt; stroke-linejoin: miter; stroke-miterlimit: 10; fill: #168A3E; fill-rule: nonzero; opacity: 1;" transform=" matrix(1 0 0 1 0 0) " stroke-linecap="round" />
</g>
</svg>